inDegrees=yes
name=ik_MT_012005D6_009-001_orientations
DataType=double
version=3
OpenSimVersion=4.4-2022-07-23-0e9fedc
endheader
time	pelvis_tilt	pelvis_list	pelvis_rotation	pelvis_tx	pelvis_ty	pelvis_tz	hip_flexion_r	hip_adduction_r	hip_rotation_r	knee_angle_r	knee_angle_r_beta	ankle_angle_r	subtalar_angle_r	mtp_angle_r	hip_flexion_l	hip_adduction_l	hip_rotation_l	knee_angle_l	knee_angle_l_beta	ankle_angle_l	subtalar_angle_l	mtp_angle_l	lumbar_extension	lumbar_bending	lumbar_rotation	arm_flex_r	arm_add_r	arm_rot_r	elbow_flex_r	pro_sup_r	wrist_flex_r	wrist_dev_r	arm_flex_l	arm_add_l	arm_rot_l	elbow_flex_l	pro_sup_l	wrist_flex_l	wrist_dev_l
12.15999999999979	451.5559912310032	-6479.266383905006	9358.021032244438	7.108583389297014e-38	0.93	3.588400934882719e-26	0.3967450054473118	7.29335610800731	-5.033088945050311	0.3688958115923395	0.00643844650910299	3.46869810259897	4.278854733622497e-16	-2.39508903156433e-15	2.450654545100043	25.7790210034613	-9.610307033841014	1.646732494726298	0.02874090393255407	2.637345720198018	1.627146380626596e-14	1.471231644221034e-14	2.138128157993059e-22	2.650600317848236e-17	-1.809971024906118e-16	-3.325974677593279e-15	7.3990432770267e-15	-8.024820984634024e-15	0	0	-4.812781014664133e-23	2.724806045365175e-21	-4.10333156493086e-16	-1.839071143801642e-15	3.328421184524561e-15	0	0	-1.964949432261399e-23	2.010522848983567e-21
12.16999999999978	451.0492766546421	-6479.252934627588	9358.114947841967	0	0.93	0	0.6378617826183721	7.891924705626243	-5.151900518139537	0.3523247817752944	0.0061492274783494	3.831588603913528	0	0	2.303403937241245	27.02230709897518	-9.709141856210017	1.585123034034938	0.0276656159931118	3.090607263476819	0	0	0	0	0	0	0	0	0	0	0	0	0	0	0	0	0	0	0
12.17999999999978	450.6343502823493	-6479.18093573909	9358.2440278496	0	0.93	0	0.8103868465630182	8.435665670078594	-5.311407299281004	0.3359899081408217	0.005864130150530638	4.096937848169833	0	0	1.866256691243649	28.03476505699993	-9.73935340862525	1.821161410409752	0.0317852628219139	4.271725587935113	0	0	0	0	0	0	0	0	0	0	0	0	0	0	0	0	0	0	0
12.18999999999978	450.2348278955802	-6479.142714607565	9358.36526760261	1.110716176655206e-39	0.93	1.501016920048557e-28	0.9397159579154936	9.038648289689871	-5.472397406785594	0.2797389769667418	0.004882366194230224	4.375714696001709	-3.760555800942681e-18	-9.723936806591236e-18	1.543420707808344	28.49174562349198	-9.873681370303967	2.093544063151695	0.03653923693757717	5.539308305087859	-2.303826252862748e-17	1.589673249244447e-18	1.43269395200203e-26	-2.333651992439102e-18	-6.127954155833502e-21	9.094612261800612e-18	-2.653986171596918e-17	-3.420382836275157e-18	6.382252602808069e-15	6.382253076195933e-15	2.97246244107411e-22	1.655440681878233e-20	-2.195152937294013e-19	-2.373069656736303e-17	-3.209208306816713e-18	6.38224693396939e-15	6.382252641790146e-15	-3.181804486560508e-22	-5.981942809119452e-21
12.19999999999978	449.7821205257101	-6479.103729519752	9358.409981269317	0	0.93	0	1.128785444651973	9.663639211806139	-5.51702032203162	0.2257217880567818	0.003939588395079656	4.651614022419915	0	0	1.224703592985705	28.59701463774815	-9.9090722724572	1.557276545824182	0.02717960308871634	6.013240229637376	0	0	0	0	0	0	0	0	1.397580512817792e-38	3.214404916978204e-39	0	0	0	0	0	0	0	0	0
12.20999999999978	449.3661000281232	-6479.040682436949	9358.410511132468	0	0.93	0	1.297529060982127	10.30228902990812	-5.542640312648946	0.1798764476822045	0.003139436258845791	4.887219573027517	1.86516540843356e-14	1.357094630325447e-22	0.8492208942863828	28.44620526200767	-9.842239061547279	0.8537803810256714	0.01490127873782969	6.127163385266556	-3.610016460023426e-19	-3.742405865508148e-22	8.345065953134373e-25	-1.154786589723105e-22	5.20042463748953e-25	4.00944466572792e-14	-2.289365517662218e-24	3.513864891266882e-13	0	0	2.374087568372519e-22	3.128597123338174e-23	5.994191021559662e-14	-3.456280634906627e-13	2.195986207517534e-13	0	0	-1.085945809901698e-23	5.588840978760597e-23
12.21999999999978	448.9442947972668	-6478.971949446472	9358.424336943133	0	0.93	0	1.433437189295847	10.96459604644821	-5.590591829860601	0.1507492434796139	0.002631070643609856	5.159104412920926	0	0	0.4607307872151301	28.16093609577208	-9.580445146645422	0.5701990119940157	0.009951850150914212	6.332784548280344	0	0	0	0	0	0	0	0	0	0	0	0	0	0	0	0	0	0	0
12.22999999999978	448.5162184691848	-6478.917454396616	9358.42746991481	0	0.93	0	1.567475874353677	11.67084801359183	-5.634174015401614	0.1275048410656801	0.002225379288828193	5.451483601502447	-1.196719304633524e-15	1.750082067051542e-23	-0.04529297001944769	27.34767211347937	-8.92695946542465	0.6124580911357373	0.01068941022079811	6.2701402413611	-5.529101043773063e-21	3.272978893869926e-23	-9.046169831215196e-25	-8.847894245438928e-23	-5.534462262503211e-25	-5.948084612556249e-15	3.661689823187082e-23	-6.811904244110606e-14	0	0	1.191650405164408e-22	2.467163730537754e-23	-2.595242072113549e-14	3.362864486202084e-14	6.756712639739882e-15	0	0	3.76282107904239e-23	-2.853031515218344e-23
12.23999999999978	448.02954005374	-6478.869297280398	9358.420931454817	0	0.93	0	1.741734579042754	12.44869045738938	-5.659767063242523	0.1125968440125968	0.001965185655374278	5.81790280023753	0	0	-0.392589950183043	26.5498512588405	-8.440022859700855	0.9252414048743648	0.01614850889083558	6.391328601079078	0	0	0	0	0	0	0	0	4.34011066154629e-39	0	0	0	0	0	0	0	0	0	0
